<!DOCTYPE svg PUBLIC "-//W3C//DTD SVG 1.1//EN" "http://www.w3.org/Graphics/SVG/1.1/DTD/svg11.dtd">
<!-- Uploaded to: SVG Repo, www.svgrepo.com, Transformed by: SVG Repo Mixer Tools -->
<svg width="800px" height="800px" viewBox="0 0 24 24" id="sound-max" xmlns="http://www.w3.org/2000/svg" class="icon multi-color" fill="#000000">
<g id="SVGRepo_bgCarrier" stroke-width="0"/>
<g id="SVGRepo_tracerCarrier" stroke-linecap="round" stroke-linejoin="round"/>
<g id="SVGRepo_iconCarrier">
<title style="stroke-width: 2;">sound max</title>
<path id="secondary-fill" d="M7,9v6H4a1,1,0,0,1-1-1V10A1,1,0,0,1,4,9Z" style="fill: #2ca9bc; stroke-width: 2;"/>
<path id="primary-stroke" d="M11,5V19L7,15H4a1,1,0,0,1-1-1V10A1,1,0,0,1,4,9H7Z" style="fill: none; stroke: #000000; stroke-linecap: round; stroke-linejoin: round; stroke-width: 2;"/>
<path id="tertiary-stroke" d="M18.36,5.64a9,9,0,0,1,0,12.72m-2.82-2.82a5,5,0,0,0,0-7.08" style="fill: none; stroke: #b7b7b7; stroke-linecap: round; stroke-linejoin: round; stroke-width: 2;"/>
</g>
</svg>